# AST/ASF file generated using VICON BodyLanguage
# -----------------------------------------------
:version 1.10
:name VICON
:units
  mass 1.0
  length 0.45
  angle deg
:documentation
   .ast/.asf automatically generated from VICON data using
   VICON BodyBuilder and BodyLanguage model FoxedUp or BRILLIANT.MOD
:root
   order TX TY TZ RX RY RZ
   axis XYZ
   position 0 0 0  
   orientation 0 0 0 
:bonedata
  begin
     id 1 
     name lhipjoint
     direction 0.710188 -0.616876 0.339259 
     length 2.5669 
     axis 0 0 0  XYZ
  end
  begin
     id 2 
     name lfemur
     direction 0.34202 -0.939693 0  
     length 7.12796  
     axis 0 0 20  XYZ
    dof rx ry rz
    limits (-160.0 20.0)
           (-70.0 70.0)
           (-60.0 70.0)
  end
  begin
     id 3 
     name ltibia
     direction 0.34202 -0.939693 0   
     length 7.58108   
     axis 0 0 20   XYZ
    dof rx
    limits (-10.0 170.0)
  end
  begin
     id 4 
     name lfoot
     direction 0.0669471 -0.183936 0.980656   
     length 2.17365   
     axis -90 7.62852e-016 20   XYZ
    dof rx rz
    limits (-45.0 90.0)
           (-70.0 20.0)
  end
  begin
     id 5 
     name ltoes
     direction 1.53508e-011 -4.21705e-011 1   
     length 1.09427   
     axis -90 7.62852e-016 20   XYZ
    dof rx
    limits (-90.0 20.0)
  end
  begin
     id 6 
     name rhipjoint
     direction -0.700191 -0.625589 0.34405   
     length 2.53115  
     axis 0 0 0  XYZ 
  end
  begin
     id 7 
     name rfemur
     direction -0.34202 -0.939693 0   
     length 7.33006   
     axis 0 0 -20   XYZ
    dof rx ry rz
    limits (-160.0 20.0)
           (-70.0 70.0)
           (-70.0 60.0)
  end
  begin
     id 8 
     name rtibia
     direction -0.34202 -0.939693 0   
     length 7.64926   
     axis 0 0 -20   XYZ
    dof rx
    limits (-10.0 170.0)
 end
 begin
     id 9 
     name rfoot
     direction -0.0688927 -0.189281 0.979503   
     length 2.20493  
     axis -90 -7.62852e-016 -20   XYZ
    dof rx rz
    limits (-45.0 90.0)
           (-20.0 70.0)
  end
  begin
     id 10 
     name rtoes
     direction -1.53567e-011 -4.21933e-011 1   
     length 1.10919   
     axis -90 -7.62852e-016 -20   XYZ
    dof rx
    limits (-90.0 20.0)
  end
  begin
     id 11 
     name lowerback
     direction -0.0167868 0.989873 -0.140959   
     length 2.14596   
     axis 0 0 0   XYZ
    dof rx ry rz
    limits (-20.0 45.0)
           (-30.0 30.0)
           (-30.0 30.0)
  end
  begin
     id 12 
     name upperback
     direction 0.0129109 0.998033 0.0613525   
     length 2.10457   
     axis 0 0 0   XYZ
    dof rx ry rz
    limits (-20.0 45.0)
           (-30.0 30.0)
           (-30.0 30.0)
  end
  begin
     id 13 
     name thorax
     direction 0.0177047 0.991119 0.131797   
     length 2.17652   
     axis 0 0 0   XYZ
    dof rx ry rz
    limits (-20.0 45.0)
           (-30.0 30.0)
           (-30.0 30.0)
  end
  begin
     id 14 
     name lowerneck
     direction -0.0336893 0.997548 0.0613464   
     length 1.8912   
     axis 0 0 0   XYZ
    dof rx ry rz
    limits (-20.0 45.0)
           (-30.0 30.0)
           (-30.0 30.0)
  end
  begin
     id 15 
     name upperneck
     direction 0.0435909 0.997179 -0.0611028   
     length 1.8829   
     axis 0 0 0   XYZ
    dof rx ry rz
    limits (-20.0 45.0)
           (-30.0 30.0)
           (-30.0 30.0)
  end
  begin
     id 16
     name head
     direction 0.0175076 0.999444 -0.0283782  
     length 1.93197  
     axis 0 0 0   XYZ
    dof rx ry rz
    limits (-20.0 45.0)
           (-30.0 30.0)
           (-30.0 30.0)
  end
  begin
     id 17 
     name lclavicle
     direction 0.919164 0.389875 0.0559876  
     length 3.60004  
     axis 0 0 0   XYZ
    dof ry rz
    limits (-20.0 10.0)
           (0.0 20.0)
  end
  begin
     id 18 
     name lhumerus
     direction 1 -4.48958e-011 6.89191e-027   
     length 5.43301   
     axis 180 -30 -90   XYZ
    dof rx ry rz
    limits (-60.0 90.0)
           (-90.0 90.0)
           (-90.0 90.0)
  end
  begin
     id 19
     name lradius
     direction 1 -4.4897e-011 3.24727e-027   
     length 3.15936   
     axis 180 -30 -90   XYZ
    dof rx
    limits (-10.0 170.0)
  end
  begin
     id 20
     name lwrist
     direction 1 -4.4897e-011 9.00228e-027   
     length 1.57968   
     axis -6.29373e-015 90 90   XYZ
    dof ry
    limits (-180.0 0.0)
 end
  begin
     id 21 
     name lhand
     direction 1 -4.48968e-011 1.80042e-026   
     length 0.712827   
     axis -1.14882e-014 90 90   XYZ
    dof rx rz
    limits (-90.0 90.0)
           (-45.0 45.0)
  end
  begin
     id 22 
     name lfingers
     direction 1 -4.49019e-011 3.60267e-026   
     length 0.574699   
     axis -2.29769e-014 90 90   XYZ
    dof rx
    limits (0.0 90.0)
  end
  begin
     id 23
     name lthumb
     direction 0.707107 -6.3498e-011 0.707107   
     length 0.825157   
     axis -90 45 5.37419e-014   XYZ
    dof rx rz
    limits (-45.0 45.0)
           (-45.0 45.0)
  end
  begin
     id 24 
     name rclavicle
     direction -0.890334 0.455305 -0.00132111   
     length 3.51494  
     axis 0 0 0   XYZ 
    dof ry rz
    limits (-10.0 20.0)
           (-20.0 0.0)
  end
  begin
     id 25 
     name rhumerus
     direction -1 -4.48967e-011 5.07175e-028  
     length 5.34194   
     axis 180 30 90   XYZ
    dof rx ry rz
    limits (-90.0 60.0)
           (-90.0 90.0)
           (-90.0 90.0)
  end
  begin
     id 26 
     name rradius
     direction -1 -4.48955e-011 3.30467e-027   
     length 3.19351   
     axis 180 30 90   XYZ
    dof rx
    limits (-10.0 170.0)
  end
  begin
     id 27 
     name rwrist
     direction -1 -4.48968e-011 9.00208e-027   
     length 1.59676   
     axis -6.29373e-015 -90 -90   XYZ
    dof ry
    limits (-180.0 0.0)
  end
  begin
     id 28
     name rhand
     direction -1 -4.49e-011 1.80099e-026   
     length 0.743862   
     axis -1.14882e-014 -90 -90   XYZ
    dof rx rz
    limits (-90.0 90.0)
           (-45.0 45.0)
  end
  begin
     id 29
     name rfingers
     direction -1 -4.49009e-011 3.6023e-026   
     length 0.599721   
     axis -2.29769e-014 -90 -90   XYZ
    dof rx
    limits (0.0 90.0)
  end
  begin
     id 30
     name rthumb
     direction -0.707107 -6.35025e-011 0.707107   
     length 0.861083   
     axis -90 -45 -5.37419e-014   XYZ
    dof rx rz
    limits (-45.0 45.0)
           (-45.0 45.0)
  end
:hierarchy
  begin
    root lhipjoint rhipjoint lowerback
    lhipjoint lfemur
    lfemur ltibia
    ltibia lfoot
    lfoot ltoes
    rhipjoint rfemur
    rfemur rtibia
    rtibia rfoot
    rfoot rtoes
    lowerback upperback
    upperback thorax
    thorax lowerneck lclavicle rclavicle
    lowerneck upperneck
    upperneck head
    lclavicle lhumerus
    lhumerus lradius
    lradius lwrist
    lwrist lhand lthumb
    lhand lfingers
    rclavicle rhumerus
    rhumerus rradius
    rradius rwrist
    rwrist rhand rthumb
    rhand rfingers
  end

#!OML:ASF H:\Martial Arts Walks\Project 1\Capture day 1\Session 1\male.ASF
:FULLY-SPECIFIED
:DEGREES
536
root -9.10269 12.0994 -16.3428 24.7621 73.5632 13.3717
lowerback 22.9873 -2.53018 -7.72377
upperback -0.938948 -4.96203 3.24857
thorax -13.038 -1.56976 9.82886
lowerneck 5.82167 -15.3821 -15.1999
upperneck -4.20287 -21.268 19.9137
head 1.66937 -10.9479 7.77527
rclavicle -1.03368e-014 2.66371e-014
rhumerus -12.7669 -10.9828 -51.2001
rradius 109.466
rwrist -17.9934
rhand -27.5153 -44.6163
rfingers 7.12502
rthumb -0.91775 -74.5941
lclavicle -1.03368e-014 2.66371e-014
lhumerus -5.47013 -57.5667 87.4846
lradius 108.826
lwrist 16.7164
lhand -13.9507 6.54724
lfingers 7.12502
lthumb 12.1766 36.1728
rfemur -75.2395 -27.4819 1.50504
rtibia 94.2523
rfoot -24.3071 -3.72281
rtoes -18.2455
lfemur -47.8843 38.7384 2.72703
ltibia 88.1342
lfoot -24.2561 14.0103
ltoes -26.2408
537
root -9.09727 12.1716 -16.2588 25.4326 73.1649 13.8366
lowerback 22.7957 -2.43071 -7.66955
upperback -0.914061 -4.81322 3.16522
thorax -12.9443 -1.51832 9.63252
lowerneck 5.90509 -15.4752 -14.8945
upperneck -4.57659 -21.3347 19.5745
head 1.48403 -10.9888 7.65646
rclavicle 7.83212e-014 -5.1684e-014
rhumerus -12.624 -10.7726 -51.2793
rradius 109.379
rwrist -18.0796
rhand -27.5444 -44.5771
rfingers 7.12502
rthumb -0.945924 -74.5547
lclavicle 7.83212e-014 -5.1684e-014
lhumerus -5.73944 -57.4034 87.333
lradius 108.969
lwrist 16.6726
lhand -14.1414 6.37797
lfingers 7.12502
lthumb 11.9927 36.0144
rfemur -75.4968 -27.5568 2.08029
rtibia 94.2084
rfoot -23.5902 -4.809
rtoes -15.865
lfemur -47.1429 38.4603 2.63639
ltibia 86.8937
lfoot -23.5737 14.2176
ltoes -26.2147
538
root -9.09377 12.2451 -16.174 25.6523 72.7726 13.85
lowerback 22.7554 -2.42668 -7.49166
upperback -0.956472 -4.76822 3.10126
thorax -13.0008 -1.50785 9.43996
lowerneck 5.84239 -15.3498 -15.0713
upperneck -4.6069 -21.1694 19.6964
head 1.49157 -10.9047 7.72794
rclavicle -4.94974e-014 4.41302e-014
rhumerus -12.3141 -10.3141 -51.5566
rradius 109.234
rwrist -18.2722
rhand -27.5154 -44.5976
rfingers 7.12502
rthumb -0.91786 -74.5754
lclavicle -4.94974e-014 4.41302e-014
lhumerus -6.02235 -56.9938 87.1678
lradius 108.998
lwrist 16.6049
lhand -14.3182 6.80985
lfingers 7.12502
lthumb 11.8223 36.4561
rfemur -75.6226 -27.4639 2.69019
rtibia 94.0785
rfoot -23.2673 -5.95086
rtoes -14.1112
lfemur -46.3515 38.0482 2.73743
ltibia 85.6208
lfoot -22.9548 14.2566
ltoes -25.7893
539
root -9.08529 12.3315 -16.0811 26.1701 72.3018 14.1427
lowerback 22.6006 -2.4108 -7.41433
upperback -0.982335 -4.72866 3.02578
thorax -12.9645 -1.5019 9.28127
lowerneck 5.93008 -15.2755 -15.0324
upperneck -4.88877 -21.0435 19.5975
head 1.35821 -10.8496 7.73022
rclavicle 6.91771e-014 -3.61788e-014
rhumerus -11.8749 -9.74139 -51.8555
rradius 108.988
rwrist -17.98
rhand -27.8277 -44.5531
rfingers 7.12502
rthumb -1.21949 -74.5294
lclavicle 6.91771e-014 -3.61788e-014
lhumerus -6.68418 -56.4137 87.1372
lradius 109.138
lwrist 16.4327
lhand -14.4585 6.7237
lfingers 7.12502
lthumb 11.6869 36.3777
rfemur -75.7858 -27.3395 3.09286
rtibia 93.872
rfoot -23.2207 -6.01491
rtoes -10.1436
lfemur -45.4492 37.7303 2.6773
ltibia 84.2047
lfoot -22.1779 14.5083
ltoes -25.7217
540
root -9.07806 12.4163 -15.9841 26.3531 71.833 14.1771
lowerback 22.6678 -2.22791 -7.56145
upperback -1.0473 -4.51843 3.14387
thorax -13.1023 -1.37629 9.45418
lowerneck 5.78025 -15.2065 -15.3242
upperneck -4.86364 -20.959 19.552
head 1.40062 -10.7947 7.74807
rclavicle 2.52457e-014 -2.14687e-014
rhumerus -11.4996 -9.19194 -51.7755
rradius 108.752
rwrist -17.7592
rhand -28.0561 -44.6797
rfingers 7.12502
rthumb -1.4401 -74.6546
lclavicle 2.52457e-014 -2.14687e-014
lhumerus -7.3776 -55.8764 87.5812
lradius 109.224
lwrist 16.2225
lhand -14.7869 6.99736
lfingers 7.12502
lthumb 11.3703 36.6691
rfemur -75.8364 -27.1125 3.65635
rtibia 93.6279
rfoot -22.9438 -7.03957
rtoes -8.71094
lfemur -44.4469 37.2347 2.76553
ltibia 82.7722
lfoot -21.2941 14.8835
ltoes -25.4083
541
root -9.06837 12.4991 -15.8827 26.6182 71.2773 14.2606
lowerback 22.4173 -2.26865 -7.34588
upperback -0.994734 -4.51771 2.98086
thorax -12.9274 -1.41528 9.10882
lowerneck 5.71094 -15.0593 -15.4748
upperneck -4.9852 -20.7514 19.6984
head 1.3751 -10.6918 7.83221
rclavicle -2.66371e-014 -1.55052e-014
rhumerus -10.8376 -8.60248 -52.3891
rradius 108.42
rwrist -17.211
rhand -28.2761 -44.7992
rfingers 7.12502
rthumb -1.65253 -74.7726
lclavicle -2.66371e-014 -1.55052e-014
lhumerus -7.98055 -55.0684 87.3334
lradius 109.281
lwrist 15.9363
lhand -14.9224 7.14357
lfingers 7.12502
lthumb 11.2396 36.8225
rfemur -75.9286 -26.9165 4.27252
rtibia 93.3733
rfoot -22.6602 -8.22285
rtoes -8.1538
lfemur -43.3772 36.7608 2.85353
ltibia 81.2708
lfoot -20.4521 15.062
ltoes -24.9316
542
root -9.05739 12.5905 -15.777 26.6678 70.6978 14.1013
lowerback 22.2533 -2.2177 -7.24421
upperback -0.99937 -4.41829 2.94427
thorax -12.8701 -1.38346 8.96199
lowerneck 5.65702 -14.9533 -15.7582
upperneck -5.06452 -20.6162 19.7896
head 1.37836 -10.6214 7.90879
rclavicle -5.96354e-015 -8.74653e-015
rhumerus -10.2085 -7.95642 -52.785
rradius 108.031
rwrist -16.5641
rhand -28.4226 -44.51
rfingers 7.12502
rthumb -1.79409 -74.4823
lclavicle -5.96354e-015 -8.74653e-015
lhumerus -9.0006 -54.1482 87.5446
lradius 109.413
lwrist 15.5759
lhand -15.0042 7.35498
lfingers 7.12502
lthumb 11.1607 37.0382
rfemur -75.955 -26.5533 4.8583
rtibia 93.0118
rfoot -22.4589 -8.88526
rtoes -6.38444
lfemur -42.2187 36.2294 3.03236
ltibia 79.6963
lfoot -19.5956 15.2964
ltoes -24.45
